<svg width="60" height="42" viewBox="0 0 60 42" fill="none" xmlns="http://www.w3.org/2000/svg">
<path d="M58.8039 17.8338L53.1704 12.6L48.1728 2.60492C47.7437 1.90704 47.1421 1.33144 46.4259 0.933568C45.7098 0.5357 44.9032 0.328978 44.0839 0.333319H15.916C15.0968 0.328978 14.2902 0.5357 13.5741 0.933568C12.8579 1.33144 12.2563 1.90704 11.8271 2.60492L6.82961 12.6L1.19603 17.8338C0.96653 18.0466 0.783493 18.3046 0.658404 18.5915C0.533314 18.8784 0.46887 19.1881 0.469117 19.5011V38.9506C0.469117 39.5531 0.708446 40.1309 1.13445 40.5569C1.56046 40.9829 2.13826 41.2222 2.74072 41.2222H11.8271C12.7358 41.2222 14.0987 40.3136 14.0987 39.4049V36.679H45.9012V38.9506C45.9012 39.8592 46.8099 41.2222 47.7185 41.2222H57.2593C57.8617 41.2222 58.4395 40.9829 58.8655 40.5569C59.2915 40.1309 59.5309 39.5531 59.5309 38.9506V19.5011C59.5311 19.1881 59.4667 18.8784 59.3416 18.5915C59.2165 18.3046 59.0334 18.0466 58.8039 17.8338ZM16.3704 4.87653H43.6296L48.1728 13.963H11.8271L16.3704 4.87653ZM18.642 25.7753C18.642 26.6839 17.279 27.5926 16.3704 27.5926H6.82961C5.92097 27.5926 5.01233 26.2296 5.01233 25.321V20.3234C5.46665 18.9605 6.37529 18.0518 7.73825 18.5062L16.8247 20.3234C17.7333 20.3234 18.642 21.6864 18.642 22.5951V25.7753ZM54.9876 25.321C54.9876 26.2296 54.079 27.5926 53.1704 27.5926H43.6296C42.721 27.5926 41.358 26.6839 41.358 25.7753V22.5951C41.358 21.6864 42.2667 20.3234 43.1753 20.3234L52.2617 18.5062C53.6247 18.0518 54.5333 18.9605 54.9876 20.3234V25.321Z" fill="url(#paint0_linear_16_266)"/>
<defs>
<linearGradient id="paint0_linear_16_266" x1="30.4691" y1="-17.6667" x2="-4.80778" y2="106.838" gradientUnits="userSpaceOnUse">
<stop stop-color="#255250"/>
<stop offset="1" stop-color="white"/>
</linearGradient>
</defs>
</svg>
