<svg width="157" height="30" viewBox="0 0 157 30" fill="none" xmlns="http://www.w3.org/2000/svg">
<path d="M8.90752 29.2341C7.39952 29.2341 6.00852 28.9611 4.73452 28.4151C3.46052 27.8431 2.44652 26.9331 1.69252 25.6851C0.938523 24.4371 0.561523 22.7861 0.561523 20.7321V8.99308C0.561523 6.93908 0.938523 5.28808 1.69252 4.04008C2.47252 2.79208 3.49952 1.89508 4.77352 1.34908C6.04752 0.777081 7.43852 0.491082 8.94652 0.491082C10.7145 0.491082 12.2225 0.790082 13.4705 1.38808C14.7185 1.98608 15.6805 2.80508 16.3565 3.84508C17.0325 4.85908 17.3705 6.00308 17.3705 7.27708C17.3705 8.00508 17.2275 8.48608 16.9415 8.72008C16.6815 8.95408 16.2785 9.07108 15.7325 9.07108C15.2125 9.07108 14.8095 8.96708 14.5235 8.75908C14.2635 8.55108 14.1205 8.27808 14.0945 7.94008C14.0685 7.55008 13.9905 7.10808 13.8605 6.61408C13.7565 6.09408 13.5225 5.60008 13.1585 5.13208C12.8205 4.63808 12.3135 4.23508 11.6375 3.92308C10.9875 3.61108 10.1165 3.45508 9.02452 3.45508C7.36052 3.45508 6.07352 3.91008 5.16352 4.82008C4.27952 5.70408 3.83752 7.09508 3.83752 8.99308V20.7321C3.83752 22.6301 4.29252 24.0341 5.20252 24.9441C6.11252 25.8281 7.42552 26.2701 9.14152 26.2701C10.2335 26.2701 11.0915 26.1141 11.7155 25.8021C12.3655 25.4901 12.8465 25.1001 13.1585 24.6321C13.4705 24.1641 13.6915 23.6701 13.8215 23.1501C13.9515 22.6041 14.0425 22.0971 14.0945 21.6291C14.1205 21.2391 14.2765 20.9531 14.5625 20.7711C14.8485 20.5891 15.2385 20.4981 15.7325 20.4981C16.2785 20.4981 16.6815 20.6281 16.9415 20.8881C17.2275 21.1221 17.3705 21.6031 17.3705 22.3311C17.3705 23.6051 17.0195 24.7751 16.3175 25.8411C15.6415 26.8811 14.6665 27.7131 13.3925 28.3371C12.1445 28.9351 10.6495 29.2341 8.90752 29.2341Z" fill="url(#paint0_linear_558_26)"/>
<path d="M22.1854 29.0001C21.9254 29.0001 21.6264 28.9481 21.2884 28.8441C20.9764 28.7141 20.7164 28.5451 20.5084 28.3371C20.3264 28.1291 20.2354 27.8951 20.2354 27.6351C20.2354 27.5311 20.2484 27.4271 20.2744 27.3231L28.2694 1.38808C28.3734 0.998081 28.6204 0.71208 29.0104 0.530081C29.4004 0.34808 29.8164 0.25708 30.2584 0.25708C30.7264 0.25708 31.1554 0.36108 31.5454 0.569081C31.9354 0.75108 32.1824 1.02408 32.2864 1.38808L40.2424 27.3231C40.2944 27.4271 40.3204 27.5181 40.3204 27.5961C40.3204 27.8561 40.2034 28.0901 39.9694 28.2981C39.7614 28.5061 39.5014 28.6751 39.1894 28.8051C38.8774 28.9351 38.5784 29.0001 38.2924 29.0001C38.0064 29.0001 37.7594 28.9481 37.5514 28.8441C37.3434 28.7141 37.2004 28.5191 37.1224 28.2591L35.3674 22.4481H25.1104L23.4334 28.2591C23.3554 28.5191 23.1994 28.7141 22.9654 28.8441C22.7574 28.9481 22.4974 29.0001 22.1854 29.0001ZM25.8904 19.7571H34.6264L30.2584 5.09308L25.8904 19.7571Z" fill="url(#paint1_linear_558_26)"/>
<path d="M59.5896 29.0781C59.2776 29.0781 58.9916 28.9481 58.7316 28.6881C58.4976 28.4281 58.2896 28.1291 58.1076 27.7911L52.2576 16.3641H47.7336V27.8301C47.7336 28.2201 47.5646 28.5191 47.2266 28.7271C46.8886 28.9091 46.5116 29.0001 46.0956 29.0001C45.7056 29.0001 45.3286 28.9091 44.9646 28.7271C44.6266 28.5191 44.4576 28.2201 44.4576 27.8301V1.62208C44.4576 1.31008 44.5616 1.05008 44.7696 0.84208C45.0036 0.634081 45.2896 0.517081 45.6276 0.491082H52.7646C54.3506 0.491082 55.7936 0.738082 57.0936 1.23208C58.4196 1.70008 59.4726 2.50608 60.2526 3.65008C61.0326 4.76808 61.4226 6.31508 61.4226 8.29108C61.4226 9.87708 61.1626 11.1901 60.6426 12.2301C60.1486 13.2701 59.4596 14.0891 58.5756 14.6871C57.6916 15.2591 56.7036 15.6621 55.6116 15.8961L61.3836 26.8551C61.4356 26.9591 61.4746 27.0631 61.5006 27.1671C61.5266 27.2451 61.5396 27.3231 61.5396 27.4011C61.5396 27.6871 61.4356 27.9601 61.2276 28.2201C61.0456 28.4801 60.7986 28.6881 60.4866 28.8441C60.2006 29.0001 59.9016 29.0781 59.5896 29.0781ZM47.7336 13.6341H52.7646C54.3766 13.6341 55.6766 13.2441 56.6646 12.4641C57.6526 11.6841 58.1466 10.3711 58.1466 8.52508C58.1466 6.67908 57.6526 5.37908 56.6646 4.62508C55.6766 3.84508 54.3766 3.45508 52.7646 3.45508H47.7336V13.6341Z" fill="url(#paint2_linear_558_26)"/>
<path d="M67.713 29.0001C67.349 29.0001 67.011 28.9091 66.699 28.7271C66.387 28.5191 66.231 28.2201 66.231 27.8301V1.66108C66.231 1.27108 66.387 0.985081 66.699 0.80308C67.011 0.595081 67.349 0.491082 67.713 0.491082H81.597C82.013 0.491082 82.299 0.647081 82.455 0.95908C82.637 1.27108 82.728 1.59608 82.728 1.93408C82.728 2.32408 82.624 2.67508 82.416 2.98708C82.234 3.29908 81.961 3.45508 81.597 3.45508H69.507V13.3611H75.591C75.955 13.3611 76.228 13.5041 76.41 13.7901C76.618 14.0761 76.722 14.4011 76.722 14.7651C76.722 15.0771 76.631 15.3761 76.449 15.6621C76.293 15.9481 76.007 16.0911 75.591 16.0911H69.507V26.0361H81.597C81.961 26.0361 82.234 26.1921 82.416 26.5041C82.624 26.7901 82.728 27.1411 82.728 27.5571C82.728 27.8951 82.637 28.2201 82.455 28.5321C82.299 28.8441 82.013 29.0001 81.597 29.0001H67.713Z" fill="url(#paint3_linear_558_26)"/>
<path d="M88.6522 29.0001C88.2622 29.0001 87.8852 28.9091 87.5212 28.7271C87.1832 28.5191 87.0142 28.2201 87.0142 27.8301V1.62208C87.0142 1.20608 87.1832 0.92008 87.5212 0.764081C87.8852 0.582081 88.2622 0.491082 88.6522 0.491082C89.0682 0.491082 89.4192 0.569081 89.7052 0.725081C89.9912 0.881081 90.2512 1.11508 90.4852 1.42708C90.7192 1.71308 90.9532 2.09008 91.1872 2.55808L100.859 21.5511V1.62208C100.859 1.23208 101.028 0.946081 101.366 0.764081C101.73 0.582081 102.107 0.491082 102.497 0.491082C102.913 0.491082 103.29 0.582081 103.628 0.764081C103.966 0.946081 104.135 1.23208 104.135 1.62208V27.8301C104.135 28.2201 103.966 28.5191 103.628 28.7271C103.29 28.9091 102.913 29.0001 102.497 29.0001C102.081 29.0001 101.691 28.8571 101.327 28.5711C100.989 28.2851 100.703 27.9341 100.469 27.5181L90.2902 7.90108V27.8301C90.2902 28.2201 90.1212 28.5191 89.7832 28.7271C89.4452 28.9091 89.0682 29.0001 88.6522 29.0001Z" fill="url(#paint4_linear_558_26)"/>
<path d="M117.249 29.0001C116.833 29.0001 116.456 28.9091 116.118 28.7271C115.78 28.5191 115.611 28.2201 115.611 27.8301V3.53308H109.293C108.955 3.53308 108.682 3.37708 108.474 3.06508C108.266 2.75308 108.162 2.38908 108.162 1.97308C108.162 1.60908 108.253 1.27108 108.435 0.95908C108.617 0.647081 108.903 0.491082 109.293 0.491082H125.205C125.595 0.491082 125.881 0.647081 126.063 0.95908C126.245 1.27108 126.336 1.60908 126.336 1.97308C126.336 2.36308 126.245 2.72708 126.063 3.06508C125.881 3.37708 125.595 3.53308 125.205 3.53308H118.887V27.8301C118.887 28.2201 118.718 28.5191 118.38 28.7271C118.042 28.9091 117.665 29.0001 117.249 29.0001Z" fill="url(#paint5_linear_558_26)"/>
<path d="M131.971 29.0001C131.581 29.0001 131.204 28.9091 130.84 28.7271C130.502 28.5191 130.333 28.2201 130.333 27.8301V1.62208C130.333 1.23208 130.502 0.946081 130.84 0.764081C131.204 0.582081 131.581 0.491082 131.971 0.491082C132.387 0.491082 132.764 0.582081 133.102 0.764081C133.44 0.946081 133.609 1.23208 133.609 1.62208V27.8301C133.609 28.2201 133.44 28.5191 133.102 28.7271C132.764 28.9091 132.387 29.0001 131.971 29.0001Z" fill="url(#paint6_linear_558_26)"/>
<path d="M148.031 29.2341C146.445 29.2341 145.015 28.9611 143.741 28.4151C142.493 27.8431 141.492 26.9461 140.738 25.7241C140.01 24.4761 139.646 22.8121 139.646 20.7321V8.99308C139.646 6.91308 140.01 5.26208 140.738 4.04008C141.492 2.79208 142.493 1.89508 143.741 1.34908C145.015 0.777081 146.445 0.491082 148.031 0.491082C149.617 0.491082 151.047 0.777081 152.321 1.34908C153.595 1.89508 154.596 2.79208 155.324 4.04008C156.077 5.26208 156.455 6.91308 156.455 8.99308V20.7321C156.455 22.8121 156.077 24.4761 155.324 25.7241C154.596 26.9461 153.595 27.8431 152.321 28.4151C151.047 28.9611 149.617 29.2341 148.031 29.2341ZM148.031 26.2701C149.643 26.2701 150.904 25.8281 151.814 24.9441C152.724 24.0341 153.179 22.6301 153.179 20.7321V8.99308C153.179 7.09508 152.724 5.70408 151.814 4.82008C150.904 3.91008 149.643 3.45508 148.031 3.45508C146.419 3.45508 145.158 3.91008 144.248 4.82008C143.364 5.70408 142.922 7.09508 142.922 8.99308V20.7321C142.922 22.6301 143.364 24.0341 144.248 24.9441C145.158 25.8281 146.419 26.2701 148.031 26.2701Z" fill="url(#paint7_linear_558_26)"/>
<defs>
<linearGradient id="paint0_linear_558_26" x1="0.561523" y1="0.25708" x2="3.63043" y2="28.1313" gradientUnits="userSpaceOnUse">
<stop stop-color="white"/>
<stop offset="1" stop-color="#F5FFFB"/>
</linearGradient>
<linearGradient id="paint1_linear_558_26" x1="0.561523" y1="0.25708" x2="3.63043" y2="28.1313" gradientUnits="userSpaceOnUse">
<stop stop-color="white"/>
<stop offset="1" stop-color="#F5FFFB"/>
</linearGradient>
<linearGradient id="paint2_linear_558_26" x1="0.561523" y1="0.25708" x2="3.63043" y2="28.1313" gradientUnits="userSpaceOnUse">
<stop stop-color="white"/>
<stop offset="1" stop-color="#F5FFFB"/>
</linearGradient>
<linearGradient id="paint3_linear_558_26" x1="0.561523" y1="0.25708" x2="3.63043" y2="28.1313" gradientUnits="userSpaceOnUse">
<stop stop-color="white"/>
<stop offset="1" stop-color="#F5FFFB"/>
</linearGradient>
<linearGradient id="paint4_linear_558_26" x1="0.561523" y1="0.25708" x2="3.63043" y2="28.1313" gradientUnits="userSpaceOnUse">
<stop stop-color="white"/>
<stop offset="1" stop-color="#F5FFFB"/>
</linearGradient>
<linearGradient id="paint5_linear_558_26" x1="0.561523" y1="0.25708" x2="3.63043" y2="28.1313" gradientUnits="userSpaceOnUse">
<stop stop-color="white"/>
<stop offset="1" stop-color="#F5FFFB"/>
</linearGradient>
<linearGradient id="paint6_linear_558_26" x1="0.561523" y1="0.25708" x2="3.63043" y2="28.1313" gradientUnits="userSpaceOnUse">
<stop stop-color="white"/>
<stop offset="1" stop-color="#F5FFFB"/>
</linearGradient>
<linearGradient id="paint7_linear_558_26" x1="0.561523" y1="0.25708" x2="3.63043" y2="28.1313" gradientUnits="userSpaceOnUse">
<stop stop-color="white"/>
<stop offset="1" stop-color="#F5FFFB"/>
</linearGradient>
</defs>
</svg>
