<svg width="161" height="50" viewBox="0 0 161 50" fill="none" xmlns="http://www.w3.org/2000/svg">
<path d="M10.9074 40.734C9.39943 40.734 8.00843 40.461 6.73443 39.915C5.46043 39.343 4.44643 38.433 3.69243 37.185C2.93843 35.937 2.56143 34.286 2.56143 32.232V20.493C2.56143 18.439 2.93843 16.788 3.69243 15.54C4.47243 14.292 5.49943 13.395 6.77343 12.849C8.04743 12.277 9.43843 11.991 10.9464 11.991C12.7144 11.991 14.2224 12.29 15.4704 12.888C16.7184 13.486 17.6804 14.305 18.3564 15.345C19.0324 16.359 19.3704 17.503 19.3704 18.777C19.3704 19.505 19.2274 19.986 18.9414 20.22C18.6814 20.454 18.2784 20.571 17.7324 20.571C17.2124 20.571 16.8094 20.467 16.5234 20.259C16.2634 20.051 16.1204 19.778 16.0944 19.44C16.0684 19.05 15.9904 18.608 15.8604 18.114C15.7564 17.594 15.5224 17.1 15.1584 16.632C14.8204 16.138 14.3134 15.735 13.6374 15.423C12.9874 15.111 12.1164 14.955 11.0244 14.955C9.36043 14.955 8.07343 15.41 7.16343 16.32C6.27943 17.204 5.83743 18.595 5.83743 20.493V32.232C5.83743 34.13 6.29243 35.534 7.20243 36.444C8.11243 37.328 9.42543 37.77 11.1414 37.77C12.2334 37.77 13.0914 37.614 13.7154 37.302C14.3654 36.99 14.8464 36.6 15.1584 36.132C15.4704 35.664 15.6914 35.17 15.8214 34.65C15.9514 34.104 16.0424 33.597 16.0944 33.129C16.1204 32.739 16.2764 32.453 16.5624 32.271C16.8484 32.089 17.2384 31.998 17.7324 31.998C18.2784 31.998 18.6814 32.128 18.9414 32.388C19.2274 32.622 19.3704 33.103 19.3704 33.831C19.3704 35.105 19.0194 36.275 18.3174 37.341C17.6414 38.381 16.6664 39.213 15.3924 39.837C14.1444 40.435 12.6494 40.734 10.9074 40.734Z" fill="url(#paint0_linear_1_114)"/>
<path d="M24.1853 40.5C23.9253 40.5 23.6263 40.448 23.2883 40.344C22.9763 40.214 22.7163 40.045 22.5083 39.837C22.3263 39.629 22.2353 39.395 22.2353 39.135C22.2353 39.031 22.2483 38.927 22.2743 38.823L30.2693 12.888C30.3733 12.498 30.6203 12.212 31.0103 12.03C31.4003 11.848 31.8163 11.757 32.2583 11.757C32.7263 11.757 33.1553 11.861 33.5453 12.069C33.9353 12.251 34.1823 12.524 34.2863 12.888L42.2423 38.823C42.2943 38.927 42.3203 39.018 42.3203 39.096C42.3203 39.356 42.2033 39.59 41.9693 39.798C41.7613 40.006 41.5013 40.175 41.1893 40.305C40.8773 40.435 40.5783 40.5 40.2923 40.5C40.0063 40.5 39.7593 40.448 39.5513 40.344C39.3433 40.214 39.2003 40.019 39.1223 39.759L37.3673 33.948H27.1103L25.4333 39.759C25.3553 40.019 25.1993 40.214 24.9653 40.344C24.7573 40.448 24.4973 40.5 24.1853 40.5ZM27.8903 31.257H36.6263L32.2583 16.593L27.8903 31.257Z" fill="url(#paint1_linear_1_114)"/>
<path d="M61.5895 40.578C61.2775 40.578 60.9915 40.448 60.7315 40.188C60.4975 39.928 60.2895 39.629 60.1075 39.291L54.2575 27.864H49.7335V39.33C49.7335 39.72 49.5645 40.019 49.2265 40.227C48.8885 40.409 48.5115 40.5 48.0955 40.5C47.7055 40.5 47.3285 40.409 46.9645 40.227C46.6265 40.019 46.4575 39.72 46.4575 39.33V13.122C46.4575 12.81 46.5615 12.55 46.7695 12.342C47.0035 12.134 47.2895 12.017 47.6275 11.991H54.7645C56.3505 11.991 57.7935 12.238 59.0935 12.732C60.4195 13.2 61.4725 14.006 62.2525 15.15C63.0325 16.268 63.4225 17.815 63.4225 19.791C63.4225 21.377 63.1625 22.69 62.6425 23.73C62.1485 24.77 61.4595 25.589 60.5755 26.187C59.6915 26.759 58.7035 27.162 57.6115 27.396L63.3835 38.355C63.4355 38.459 63.4745 38.563 63.5005 38.667C63.5265 38.745 63.5395 38.823 63.5395 38.901C63.5395 39.187 63.4355 39.46 63.2275 39.72C63.0455 39.98 62.7985 40.188 62.4865 40.344C62.2005 40.5 61.9015 40.578 61.5895 40.578ZM49.7335 25.134H54.7645C56.3765 25.134 57.6765 24.744 58.6645 23.964C59.6525 23.184 60.1465 21.871 60.1465 20.025C60.1465 18.179 59.6525 16.879 58.6645 16.125C57.6765 15.345 56.3765 14.955 54.7645 14.955H49.7335V25.134Z" fill="url(#paint2_linear_1_114)"/>
<path d="M69.7129 40.5C69.3489 40.5 69.0109 40.409 68.6989 40.227C68.3869 40.019 68.2309 39.72 68.2309 39.33V13.161C68.2309 12.771 68.3869 12.485 68.6989 12.303C69.0109 12.095 69.3489 11.991 69.7129 11.991H83.5969C84.0129 11.991 84.2989 12.147 84.4549 12.459C84.6369 12.771 84.7279 13.096 84.7279 13.434C84.7279 13.824 84.6239 14.175 84.4159 14.487C84.2339 14.799 83.9609 14.955 83.5969 14.955H71.5069V24.861H77.5909C77.9549 24.861 78.2279 25.004 78.4099 25.29C78.6179 25.576 78.7219 25.901 78.7219 26.265C78.7219 26.577 78.6309 26.876 78.4489 27.162C78.2929 27.448 78.0069 27.591 77.5909 27.591H71.5069V37.536H83.5969C83.9609 37.536 84.2339 37.692 84.4159 38.004C84.6239 38.29 84.7279 38.641 84.7279 39.057C84.7279 39.395 84.6369 39.72 84.4549 40.032C84.2989 40.344 84.0129 40.5 83.5969 40.5H69.7129Z" fill="url(#paint3_linear_1_114)"/>
<path d="M90.6521 40.5C90.2621 40.5 89.8851 40.409 89.5211 40.227C89.1831 40.019 89.0141 39.72 89.0141 39.33V13.122C89.0141 12.706 89.1831 12.42 89.5211 12.264C89.8851 12.082 90.2621 11.991 90.6521 11.991C91.0681 11.991 91.4191 12.069 91.7051 12.225C91.9911 12.381 92.2511 12.615 92.4851 12.927C92.7191 13.213 92.9531 13.59 93.1871 14.058L102.859 33.051V13.122C102.859 12.732 103.028 12.446 103.366 12.264C103.73 12.082 104.107 11.991 104.497 11.991C104.913 11.991 105.29 12.082 105.628 12.264C105.966 12.446 106.135 12.732 106.135 13.122V39.33C106.135 39.72 105.966 40.019 105.628 40.227C105.29 40.409 104.913 40.5 104.497 40.5C104.081 40.5 103.691 40.357 103.327 40.071C102.989 39.785 102.703 39.434 102.469 39.018L92.2901 19.401V39.33C92.2901 39.72 92.1211 40.019 91.7831 40.227C91.4451 40.409 91.0681 40.5 90.6521 40.5Z" fill="url(#paint4_linear_1_114)"/>
<path d="M119.249 40.5C118.833 40.5 118.456 40.409 118.118 40.227C117.78 40.019 117.611 39.72 117.611 39.33V15.033H111.293C110.955 15.033 110.682 14.877 110.474 14.565C110.266 14.253 110.162 13.889 110.162 13.473C110.162 13.109 110.253 12.771 110.435 12.459C110.617 12.147 110.903 11.991 111.293 11.991H127.205C127.595 11.991 127.881 12.147 128.063 12.459C128.245 12.771 128.336 13.109 128.336 13.473C128.336 13.863 128.245 14.227 128.063 14.565C127.881 14.877 127.595 15.033 127.205 15.033H120.887V39.33C120.887 39.72 120.718 40.019 120.38 40.227C120.042 40.409 119.665 40.5 119.249 40.5Z" fill="url(#paint5_linear_1_114)"/>
<path d="M133.97 40.5C133.58 40.5 133.203 40.409 132.839 40.227C132.501 40.019 132.332 39.72 132.332 39.33V13.122C132.332 12.732 132.501 12.446 132.839 12.264C133.203 12.082 133.58 11.991 133.97 11.991C134.386 11.991 134.763 12.082 135.101 12.264C135.439 12.446 135.608 12.732 135.608 13.122V39.33C135.608 39.72 135.439 40.019 135.101 40.227C134.763 40.409 134.386 40.5 133.97 40.5Z" fill="url(#paint6_linear_1_114)"/>
<path d="M150.03 40.734C148.444 40.734 147.014 40.461 145.74 39.915C144.492 39.343 143.491 38.446 142.737 37.224C142.009 35.976 141.645 34.312 141.645 32.232V20.493C141.645 18.413 142.009 16.762 142.737 15.54C143.491 14.292 144.492 13.395 145.74 12.849C147.014 12.277 148.444 11.991 150.03 11.991C151.616 11.991 153.046 12.277 154.32 12.849C155.594 13.395 156.595 14.292 157.323 15.54C158.077 16.762 158.454 18.413 158.454 20.493V32.232C158.454 34.312 158.077 35.976 157.323 37.224C156.595 38.446 155.594 39.343 154.32 39.915C153.046 40.461 151.616 40.734 150.03 40.734ZM150.03 37.77C151.642 37.77 152.903 37.328 153.813 36.444C154.723 35.534 155.178 34.13 155.178 32.232V20.493C155.178 18.595 154.723 17.204 153.813 16.32C152.903 15.41 151.642 14.955 150.03 14.955C148.418 14.955 147.157 15.41 146.247 16.32C145.363 17.204 144.921 18.595 144.921 20.493V32.232C144.921 34.13 145.363 35.534 146.247 36.444C147.157 37.328 148.418 37.77 150.03 37.77Z" fill="url(#paint7_linear_1_114)"/>
<defs>
<linearGradient id="paint0_linear_1_114" x1="80.5079" y1="11.757" x2="80.5079" y2="40.734" gradientUnits="userSpaceOnUse">
<stop stop-color="#255250"/>
<stop offset="1" stop-color="#030505"/>
</linearGradient>
<linearGradient id="paint1_linear_1_114" x1="80.5079" y1="11.757" x2="80.5079" y2="40.734" gradientUnits="userSpaceOnUse">
<stop stop-color="#255250"/>
<stop offset="1" stop-color="#030505"/>
</linearGradient>
<linearGradient id="paint2_linear_1_114" x1="80.5079" y1="11.757" x2="80.5079" y2="40.734" gradientUnits="userSpaceOnUse">
<stop stop-color="#255250"/>
<stop offset="1" stop-color="#030505"/>
</linearGradient>
<linearGradient id="paint3_linear_1_114" x1="80.5079" y1="11.757" x2="80.5079" y2="40.734" gradientUnits="userSpaceOnUse">
<stop stop-color="#255250"/>
<stop offset="1" stop-color="#030505"/>
</linearGradient>
<linearGradient id="paint4_linear_1_114" x1="80.5079" y1="11.757" x2="80.5079" y2="40.734" gradientUnits="userSpaceOnUse">
<stop stop-color="#255250"/>
<stop offset="1" stop-color="#030505"/>
</linearGradient>
<linearGradient id="paint5_linear_1_114" x1="80.5079" y1="11.757" x2="80.5079" y2="40.734" gradientUnits="userSpaceOnUse">
<stop stop-color="#255250"/>
<stop offset="1" stop-color="#030505"/>
</linearGradient>
<linearGradient id="paint6_linear_1_114" x1="80.5079" y1="11.757" x2="80.5079" y2="40.734" gradientUnits="userSpaceOnUse">
<stop stop-color="#255250"/>
<stop offset="1" stop-color="#030505"/>
</linearGradient>
<linearGradient id="paint7_linear_1_114" x1="80.5079" y1="11.757" x2="80.5079" y2="40.734" gradientUnits="userSpaceOnUse">
<stop stop-color="#255250"/>
<stop offset="1" stop-color="#030505"/>
</linearGradient>
</defs>
</svg>
