<svg width="60" height="42" viewBox="0 0 60 42" fill="none" xmlns="http://www.w3.org/2000/svg">
<path d="M0.469116 41.5555V34.3999C0.469116 32.9518 0.861071 31.6212 1.64498 30.4081C2.42889 29.1951 3.46874 28.2683 4.76451 27.6277C7.53863 26.3073 10.3575 25.3175 13.2211 24.6581C16.0847 23.9988 18.993 23.6683 21.9461 23.6666C24.8992 23.6649 27.8075 23.9954 30.6711 24.6581C33.5347 25.3209 36.3536 26.3107 39.1277 27.6277C40.4253 28.2666 41.466 29.1934 42.2499 30.4081C43.0338 31.6229 43.4249 32.9535 43.4231 34.3999V41.5555H0.469116ZM48.7924 41.5555V33.8888C48.7924 32.0147 48.2447 30.2148 47.1494 28.4889C46.054 26.7631 44.4987 25.2834 42.4835 24.0499C44.7654 24.3055 46.9131 24.7425 48.9266 25.3609C50.94 25.9794 52.8193 26.7349 54.5643 27.6277C56.1751 28.4795 57.4055 29.4268 58.2557 30.4695C59.1058 31.5121 59.5308 32.6519 59.5308 33.8888V41.5555H48.7924ZM21.9461 21.111C18.993 21.111 16.465 20.1101 14.362 18.1082C12.2591 16.1064 11.2076 13.6999 11.2076 10.8888C11.2076 8.07768 12.2591 5.6712 14.362 3.66935C16.465 1.6675 18.993 0.666569 21.9461 0.666569C24.8992 0.666569 27.4272 1.6675 29.5302 3.66935C31.6331 5.6712 32.6846 8.07768 32.6846 10.8888C32.6846 13.6999 31.6331 16.1064 29.5302 18.1082C27.4272 20.1101 24.8992 21.111 21.9461 21.111ZM48.7924 10.8888C48.7924 13.6999 47.7409 16.1064 45.6379 18.1082C43.535 20.1101 41.0069 21.111 38.0539 21.111C37.5617 21.111 36.9353 21.0582 36.1746 20.9526C35.414 20.8469 34.7876 20.7294 34.2954 20.5999C35.5035 19.2369 36.4323 17.7249 37.082 16.0638C37.7317 14.4027 38.0556 12.6777 38.0539 10.8888C38.0521 9.0999 37.7281 7.3749 37.082 5.71379C36.4359 4.05268 35.507 2.54064 34.2954 1.17768C34.9218 0.964717 35.5482 0.825866 36.1746 0.761125C36.801 0.696385 37.4274 0.664866 38.0539 0.666569C41.0069 0.666569 43.535 1.6675 45.6379 3.66935C47.7409 5.6712 48.7924 8.07768 48.7924 10.8888ZM5.83836 36.4444H38.0539V34.3999C38.0539 33.9314 37.9313 33.5055 37.6861 33.1221C37.4409 32.7388 37.116 32.4406 36.7115 32.2277C34.2954 31.0777 31.8568 30.2156 29.3959 29.6415C26.935 29.0673 24.4518 28.7794 21.9461 28.7777C19.4405 28.776 16.9572 29.0639 14.4963 29.6415C12.0354 30.219 9.59684 31.0811 7.18068 32.2277C6.77798 32.4406 6.45314 32.7388 6.20616 33.1221C5.95917 33.5055 5.83657 33.9314 5.83836 34.3999V36.4444ZM21.9461 15.9999C23.4227 15.9999 24.6871 15.4999 25.7395 14.4998C26.7919 13.4997 27.3171 12.2961 27.3154 10.8888C27.3136 9.48153 26.7883 8.27872 25.7395 7.28035C24.6907 6.28198 23.4262 5.78109 21.9461 5.77768C20.466 5.77427 19.2024 6.27516 18.1554 7.28035C17.1084 8.28553 16.5822 9.48835 16.5769 10.8888C16.5715 12.2892 17.0977 13.4929 18.1554 14.4998C19.2132 15.5067 20.4767 16.0067 21.9461 15.9999Z" fill="url(#paint0_linear_16_84)"/>
<defs>
<linearGradient id="paint0_linear_16_84" x1="30.4691" y1="-17.3335" x2="-4.80778" y2="107.171" gradientUnits="userSpaceOnUse">
<stop stop-color="#255250"/>
<stop offset="1" stop-color="white"/>
</linearGradient>
</defs>
</svg>
