<svg width="60" height="42" viewBox="0 0 60 42" fill="none" xmlns="http://www.w3.org/2000/svg">
<path d="M58.8041 17.8338L53.1705 12.6L48.1729 2.60492C47.7438 1.90704 47.1422 1.33144 46.426 0.933568C45.7099 0.5357 44.9033 0.328978 44.0841 0.333319H15.9162C15.0969 0.328978 14.2903 0.5357 13.5742 0.933568C12.858 1.33144 12.2564 1.90704 11.8273 2.60492L6.82973 12.6L1.19615 17.8338C0.966652 18.0466 0.783616 18.3046 0.658526 18.5915C0.533436 18.8784 0.468992 19.1881 0.469239 19.5011V38.9506C0.469239 39.5531 0.708568 40.1309 1.13458 40.5569C1.56059 40.9829 2.13838 41.2222 2.74084 41.2222H11.8273C12.7359 41.2222 14.0989 40.3136 14.0989 39.4049V36.679H45.9013V38.9506C45.9013 39.8592 46.81 41.2222 47.7186 41.2222H57.2594C57.8618 41.2222 58.4396 40.9829 58.8656 40.5569C59.2916 40.1309 59.531 39.5531 59.531 38.9506V19.5011C59.5312 19.1881 59.4668 18.8784 59.3417 18.5915C59.2166 18.3046 59.0336 18.0466 58.8041 17.8338ZM16.3705 4.87653H43.6297L48.1729 13.963H11.8273L16.3705 4.87653ZM18.6421 25.7753C18.6421 26.6839 17.2791 27.5926 16.3705 27.5926H6.82973C5.92109 27.5926 5.01245 26.2296 5.01245 25.321V20.3234C5.46677 18.9605 6.37541 18.0518 7.73838 18.5062L16.8248 20.3234C17.7334 20.3234 18.6421 21.6864 18.6421 22.5951V25.7753ZM54.9878 25.321C54.9878 26.2296 54.0791 27.5926 53.1705 27.5926H43.6297C42.7211 27.5926 41.3581 26.6839 41.3581 25.7753V22.5951C41.3581 21.6864 42.2668 20.3234 43.1754 20.3234L52.2618 18.5062C53.6248 18.0518 54.5334 18.9605 54.9878 20.3234V25.321Z" fill="white"/>
</svg>
