<svg width="60" height="42" viewBox="0 0 60 42" fill="none" xmlns="http://www.w3.org/2000/svg">
<path d="M0.469238 41.5557V34.4002C0.469238 32.952 0.861193 31.6214 1.6451 30.4084C2.42901 29.1953 3.46886 28.2685 4.76464 27.6279C7.53875 26.3076 10.3576 25.3177 13.2212 24.6584C16.0848 23.999 18.9931 23.6685 21.9462 23.6668C24.8993 23.6651 27.8077 23.9956 30.6713 24.6584C33.5349 25.3211 36.3537 26.311 39.1278 27.6279C40.4254 28.2668 41.4661 29.1936 42.25 30.4084C43.034 31.6231 43.425 32.9537 43.4232 34.4002V41.5557H0.469238ZM48.7925 41.5557V33.889C48.7925 32.015 48.2448 30.215 47.1495 28.4892C46.0542 26.7633 44.4989 25.2836 42.4836 24.0501C44.7655 24.3057 46.9132 24.7427 48.9267 25.3612C50.9402 25.9796 52.8194 26.7352 54.5644 27.6279C56.1752 28.4798 57.4056 29.427 58.2558 30.4697C59.1059 31.5124 59.531 32.6522 59.531 33.889V41.5557H48.7925ZM21.9462 21.1113C18.9931 21.1113 16.4651 20.1103 14.3622 18.1085C12.2592 16.1066 11.2077 13.7001 11.2077 10.889C11.2077 8.07793 12.2592 5.67144 14.3622 3.66959C16.4651 1.66774 18.9931 0.666814 21.9462 0.666814C24.8993 0.666814 27.4273 1.66774 29.5303 3.66959C31.6333 5.67144 32.6847 8.07793 32.6847 10.889C32.6847 13.7001 31.6333 16.1066 29.5303 18.1085C27.4273 20.1103 24.8993 21.1113 21.9462 21.1113ZM48.7925 10.889C48.7925 13.7001 47.741 16.1066 45.638 18.1085C43.5351 20.1103 41.0071 21.1113 38.054 21.1113C37.5618 21.1113 36.9354 21.0584 36.1747 20.9528C35.4141 20.8472 34.7877 20.7296 34.2955 20.6001C35.5036 19.2372 36.4325 17.7251 37.0821 16.064C37.7318 14.4029 38.0558 12.6779 38.054 10.889C38.0522 9.10015 37.7282 7.37515 37.0821 5.71404C36.436 4.05292 35.5072 2.54089 34.2955 1.17792C34.9219 0.964961 35.5483 0.82611 36.1747 0.76137C36.8012 0.696629 37.4276 0.66511 38.054 0.666814C41.0071 0.666814 43.5351 1.66774 45.638 3.66959C47.741 5.67144 48.7925 8.07793 48.7925 10.889ZM5.83849 36.4446H38.054V34.4002C38.054 33.9316 37.9314 33.5057 37.6862 33.1224C37.441 32.739 37.1161 32.4409 36.7117 32.2279C34.2955 31.0779 31.857 30.2159 29.3961 29.6417C26.9352 29.0676 24.4519 28.7796 21.9462 28.7779C19.4406 28.7762 16.9573 29.0642 14.4964 29.6417C12.0355 30.2193 9.59696 31.0813 7.1808 32.2279C6.77811 32.4409 6.45327 32.739 6.20628 33.1224C5.95929 33.5057 5.8367 33.9316 5.83849 34.4002V36.4446ZM21.9462 16.0001C23.4228 16.0001 24.6872 15.5001 25.7396 14.5C26.792 13.5 27.3173 12.2963 27.3155 10.889C27.3137 9.48178 26.7884 8.27896 25.7396 7.28059C24.6908 6.28222 23.4264 5.78133 21.9462 5.77793C20.4661 5.77452 19.2025 6.27541 18.1555 7.28059C17.1085 8.28578 16.5824 9.48859 16.577 10.889C16.5716 12.2895 17.0978 13.4931 18.1555 14.5C19.2133 15.5069 20.4768 16.007 21.9462 16.0001Z" fill="white"/>
</svg>
